<?xml version="1.0" encoding="utf-8"?>
<!-- Generator: Adobe Illustrator 28.0.0, SVG Export Plug-In . SVG Version: 6.00 Build 0)  -->
<svg version="1.1" id="Layer_1" xmlns="http://www.w3.org/2000/svg" xmlns:xlink="http://www.w3.org/1999/xlink" x="0px" y="0px"
	 viewBox="0 0 13 10" style="enable-background:new 0 0 13 10;" xml:space="preserve">
<g>
	<path class="st0" d="M3.5,1C3.8,1,4,0.8,4,0.5S3.8,0,3.5,0C2.1,0,1,1.1,1,2.5V4C0.4,4,0,4.4,0,5c0,0.6,0.4,1,1,1v1.5
		C1,8.9,2.1,10,3.5,10C3.8,10,4,9.8,4,9.5S3.8,9,3.5,9C2.7,9,2,8.3,2,7.5v-5C2,1.7,2.7,1,3.5,1z"/>
	<path class="st0" d="M12,4V2.5C12,1.1,10.9,0,9.5,0C9.2,0,9,0.2,9,0.5S9.2,1,9.5,1C10.3,1,11,1.7,11,2.5v5C11,8.3,10.3,9,9.5,9
		C9.2,9,9,9.2,9,9.5S9.2,10,9.5,10c1.4,0,2.5-1.1,2.5-2.5V6c0.6,0,1-0.4,1-1C13,4.4,12.6,4,12,4z"/>
</g>
</svg>
