<?xml version="1.0" encoding="utf-8"?>
<!-- Generator: Adobe Illustrator 28.0.0, SVG Export Plug-In . SVG Version: 6.00 Build 0)  -->
<svg version="1.1" id="Layer_1" xmlns="http://www.w3.org/2000/svg" xmlns:xlink="http://www.w3.org/1999/xlink" x="0px" y="0px"
	 viewBox="0 0 14 8" style="enable-background:new 0 0 14 8;" xml:space="preserve">
<g>
	<path class="st0" d="M3.5,8h-1C1.1,8,0,6.9,0,5.5v-1C0,4.2,0.2,4,0.5,4S1,4.2,1,4.5v1C1,6.3,1.7,7,2.5,7h1C4.3,7,5,6.3,5,5.5v-5
		C5,0.2,5.2,0,5.5,0S6,0.2,6,0.5v5C6,6.9,4.9,8,3.5,8z"/>
</g>
<g>
	<path class="st0" d="M11.9,8H8.5C8.2,8,8,7.8,8,7.5S8.2,7,8.5,7h3.4C12.5,7,13,6.5,13,5.9c0-0.5-0.4-1-0.9-1.1L9.7,4.3
		C8.7,4.1,8,3.2,8,2.1C8,1,9,0,10.1,0h2.4C12.8,0,13,0.2,13,0.5S12.8,1,12.5,1h-2.4C9.5,1,9,1.5,9,2.1c0,0.5,0.4,1,0.9,1.1l2.3,0.5
		c1,0.2,1.7,1.1,1.7,2.1C14,7,13,8,11.9,8z"/>
</g>
</svg>
