<svg width="25" height="24" viewBox="0 0 25 24" fill="none" xmlns="http://www.w3.org/2000/svg">
  <path fill-rule="evenodd" clip-rule="evenodd" d="M7 6C6.72386 6 6.5 6.22386 6.5 6.5V16.5C6.5 16.7761 6.72386 17 7 17H17C17.2764 17 17.5 16.7763 17.5 16.5005V14.5C17.5 14.2239 17.7239 14 18 14C18.2761 14 18.5 14.2239 18.5 14.5V16.5005C18.5 17.3292 17.8281 18 17 18H7C6.17157 18 5.5 17.3284 5.5 16.5V6.5C5.5 5.67157 6.17157 5 7 5H9C9.27614 5 9.5 5.22386 9.5 5.5C9.5 5.77614 9.27614 6 9 6H7Z" fill="#4C5664"/>
  <path fill-rule="evenodd" clip-rule="evenodd" d="M13.5001 5.5C13.5001 5.22386 13.7239 5 14.0001 5L18.0001 5C18.2762 5 18.5001 5.22386 18.5001 5.5L18.5001 9.5C18.5001 9.77614 18.2762 10 18.0001 10C17.7239 10 17.5001 9.77614 17.5001 9.5L17.5001 6L14.0001 6C13.7239 6 13.5001 5.77614 13.5001 5.5Z" fill="#4C5664"/>
  <path fill-rule="evenodd" clip-rule="evenodd" d="M14.4999 13.5C14.4999 13.7761 14.2761 14 13.9999 14L9.99992 14C9.72378 14 9.49992 13.7761 9.49992 13.5L9.49992 9.5C9.49992 9.22386 9.72378 9 9.99992 9C10.2761 9 10.4999 9.22386 10.4999 9.5L10.4999 13L13.9999 13C14.2761 13 14.4999 13.2239 14.4999 13.5Z" fill="#4C5664"/>
  <path fill-rule="evenodd" clip-rule="evenodd" d="M9.64652 13.8536C9.45126 13.6583 9.45126 13.3417 9.64652 13.1464L17.6465 5.14645C17.8418 4.95118 18.1584 4.95118 18.3536 5.14645C18.5489 5.34171 18.5489 5.65829 18.3536 5.85355L10.3536 13.8536C10.1584 14.0488 9.84178 14.0488 9.64652 13.8536Z" fill="#4C5664"/>
</svg>
