<svg width="25" height="24" viewBox="0 0 25 24" fill="none" xmlns="http://www.w3.org/2000/svg">
  <path fill-rule="evenodd" clip-rule="evenodd" d="M6 7C6 6.17157 6.67157 5.5 7.5 5.5H17.5C18.3284 5.5 19 6.17157 19 7V17C19 17.8284 18.3284 18.5 17.5 18.5H7.5C6.67157 18.5 6 17.8284 6 17V7ZM7.5 6.5C7.22386 6.5 7 6.72386 7 7V17C7 17.2761 7.22386 17.5 7.5 17.5H17.5C17.7761 17.5 18 17.2761 18 17V7C18 6.72386 17.7761 6.5 17.5 6.5H7.5Z" fill="#4C5664"/>
  <path fill-rule="evenodd" clip-rule="evenodd" d="M9 12C9 11.7239 9.22386 11.5 9.5 11.5H15.5C15.7761 11.5 16 11.7239 16 12C16 12.2761 15.7761 12.5 15.5 12.5H9.5C9.22386 12.5 9 12.2761 9 12Z" fill="#4C5664"/>
</svg>
