<svg width="15" height="15" viewBox="0 0 15 15" fill="none" xmlns="http://www.w3.org/2000/svg">
<path fill-rule="evenodd" clip-rule="evenodd" d="M2.5 2C2.22386 2 2 2.22386 2 2.5V12.5C2 12.7761 2.22386 13 2.5 13H12.5C12.7764 13 13 12.7763 13 12.5005V10.5C13 10.2239 13.2239 10 13.5 10C13.7761 10 14 10.2239 14 10.5V12.5005C14 13.3292 13.3281 14 12.5 14H2.5C1.67157 14 1 13.3284 1 12.5V2.5C1 1.67157 1.67157 1 2.5 1H4.5C4.77614 1 5 1.22386 5 1.5C5 1.77614 4.77614 2 4.5 2H2.5Z" fill="#262F33"/>
<path fill-rule="evenodd" clip-rule="evenodd" d="M5.00008 5.5C5.00008 5.22386 5.22393 5 5.50008 5L9.50008 5C9.77622 5 10.0001 5.22386 10.0001 5.5L10.0001 9.5C10.0001 9.77614 9.77622 10 9.50008 10C9.22393 10 9.00008 9.77614 9.00008 9.5L9.00008 6L5.50008 6C5.22393 6 5.00008 5.77614 5.00008 5.5Z" fill="#262F33"/>
<path fill-rule="evenodd" clip-rule="evenodd" d="M14.9999 4.5C14.9999 4.77614 14.7761 5 14.4999 5L10.4999 5C10.2238 5 9.99992 4.77614 9.99992 4.5L9.99992 0.499999C9.99992 0.223857 10.2238 -6.98033e-07 10.4999 -4.74559e-07C10.7761 -5.98796e-07 10.9999 0.223857 10.9999 0.499999L10.9999 4L14.4999 4C14.7761 4 14.9999 4.22386 14.9999 4.5Z" fill="#262F33"/>
<path fill-rule="evenodd" clip-rule="evenodd" d="M9.85355 5.14645C10.0488 5.34171 10.0488 5.65829 9.85355 5.85355L5.85355 9.85355C5.65829 10.0488 5.34171 10.0488 5.14645 9.85355C4.95118 9.65829 4.95118 9.34171 5.14645 9.14645L9.14645 5.14645C9.34171 4.95118 9.65829 4.95118 9.85355 5.14645Z" fill="#262F33"/>
<path fill-rule="evenodd" clip-rule="evenodd" d="M14.8536 0.146447C15.0488 0.341709 15.0488 0.658291 14.8536 0.853553L10.8536 4.85355C10.6583 5.04882 10.3417 5.04882 10.1464 4.85355C9.95118 4.65829 9.95118 4.34171 10.1464 4.14645L14.1464 0.146447C14.3417 -0.0488155 14.6583 -0.0488155 14.8536 0.146447Z" fill="#262F33"/>
</svg>
